<svg xmlns="http://www.w3.org/2000/svg" aria-hidden="true" style="width:0;height:0;position:absolute;overflow:hidden"><defs><symbol id="icon-film" viewBox="0 0 32 32"><path stroke="#818181" stroke-linecap="round" stroke-linejoin="round" stroke-width="2.667" d="M26.427 2.667H5.574a2.907 2.907 0 0 0-2.907 2.907v20.853a2.907 2.907 0 0 0 2.907 2.907v0h20.853a2.907 2.907 0 0 0 2.907-2.907v0V5.574a2.907 2.907 0 0 0-2.907-2.907v0zm-17.094 0v26.667M22.667 2.667v26.667M2.667 16h26.667M2.667 9.333h6.667M2.667 22.667h6.667m13.333 0h6.667M22.667 9.333h6.667" style="stroke:var(--color1,#818181)"/></symbol><symbol id="icon-heart" viewBox="0 0 32 32"><path fill="#ff6b08" d="m16 30.144-2.24-2.217C5.44 20.64 0 15.726 0 9.71 0 4.793 3.84.995 8.8.995c2.72.002 5.44 1.269 7.2 3.326A9.64 9.64 0 0 1 23.195.998h.005c4.96 0 8.8 3.801 8.8 8.711 0 6.021-5.44 10.933-13.76 18.217L16 30.145z" style="fill:var(--color2,#ff6b08)"/></symbol><symbol id="icon-search" viewBox="0 0 32 32"><path fill="none" stroke="#fff" stroke-linecap="round" stroke-linejoin="round" stroke-width="2.667" d="M14.667 25.333c5.891 0 10.667-4.776 10.667-10.667S20.558 3.999 14.667 3.999v0C8.776 3.999 4 8.775 4 14.666s4.776 10.667 10.667 10.667v0zM28 28l-5.8-5.8" style="stroke:var(--color3,#fff)"/></symbol><symbol id="up" viewBox="0 0 32 32"><path style="fill:currentColor" d="M0 16c0 8.837 7.163 16 16 16s16-7.163 16-16S24.837 0 16 0 0 7.163 0 16zm29 0c0 7.18-5.82 13-13 13S3 23.18 3 16 8.82 3 16 3s13 5.82 13 13z"/><path style="fill:currentColor" d="m22.086 20.914 2.829-2.829-8.914-8.914-8.914 8.914 2.828 2.828 6.086-6.086z"/></symbol><symbol id="arrow-left" viewBox="0 0 32 32"><path stroke-linejoin="round" stroke-linecap="round" stroke-width="2.666" d="M25.334 16H6.666M16 25.334 6.666 16 16 6.666"/></symbol><symbol id="arrow-right" viewBox="0 0 32 32"><path stroke-linejoin="round" stroke-linecap="round" stroke-width="2.666" d="M6.666 16h18.668M16 25.334 25.334 16 16 6.666"/></symbol><symbol id="icon-github" viewBox="0 0 32 32"><path d="M16 0C7.165 0 0 7.164 0 16c0 7.069 4.584 13.067 10.943 15.183.799.148 1.057-.348 1.057-.769v-2.979c-4.451.968-5.377-1.888-5.377-1.888-.728-1.849-1.777-2.341-1.777-2.341-1.452-.993.111-.972.111-.972 1.607.112 2.452 1.649 2.452 1.649 1.427 2.445 3.743 1.739 4.656 1.329.143-1.033.557-1.74 1.016-2.139-3.553-.407-7.289-1.779-7.289-7.908 0-1.748.625-3.175 1.648-4.295-.165-.404-.713-2.032.156-4.235 0 0 1.344-.429 4.401 1.64a15.345 15.345 0 0 1 4.004-.539c1.36.007 2.729.184 4.008.539 3.055-2.069 4.396-1.64 4.396-1.64.871 2.204.323 3.832.157 4.235 1.027 1.12 1.647 2.548 1.647 4.295 0 6.145-3.743 7.499-7.305 7.895.573.496 1.097 1.469 1.097 2.963v4.391c0 .425.256.925 1.068.768 6.353-2.119 10.932-8.115 10.932-15.181 0-8.836-7.164-16-16-16z"/></symbol><symbol id="close" viewBox="0 0 32 32"><path d="M31.439 3.166 28.273 0 15.72 12.553 3.167 0 .001 3.166l12.553 12.553L.001 28.272l3.166 3.166L15.72 18.885l12.553 12.553 3.166-3.166-12.553-12.553L31.439 3.166z"/></symbol></defs></svg>